<svg class="svg_icon shadow" xmlns="http://www.w3.org/2000/svg" xmlns:xlink="http://www.w3.org/1999/xlink" viewBox="0, 0, 400,400">
<g transform="translate(200,200) scale(1.2) translate(-200,-200)">
<path
    d="M128.696 54.086 C 128.696 85.932,130.096 100.444,133.872 107.748 C
    138.528 116.750,165.719 283.219,173.537 350.577 C 178.178 390.565,185.593
    405.403,187.093 377.701 C 187.706 366.394,186.553 353.089,184.533 348.136 C
    176.310 327.979,149.320 120.847,153.333 108.689 C 157.448 96.221,155.402
    83.227,141.832 35.652 C 131.652 -0.036,128.696 4.113,128.696 54.086 M161.768
    124.348 C 167.198 137.505,169.788 154.332,168.041 165.100 L 166.208 176.396
    184.401 178.809 C 200.108 180.893,214.619 185.426,240.870 196.449 C 249.814
    200.205,248.832 177.268,239.024 153.352 C 231.722 135.549,230.176
    134.101,210.435 126.575 C 184.041 116.514,158.044 115.324,161.768 124.348
    M206.734 210.706 C 202.164 241.180,213.749 282.638,231.491 299.306 L 239.811
    307.122 236.427 295.323 C 231.486 278.094,232.283 254.259,238.499 233.326 C
    245.155 210.913,243.837 206.914,227.553 200.110 C 209.780 192.684,209.408
    192.873,206.734 210.706 " fill-rule="evenodd">
</path>
</g>
</svg>
