<svg class="svg_icon shadow" xmlns="http://www.w3.org/2000/svg" xmlns:xlink="http://www.w3.org/1999/xlink" viewBox="0, 0, 400,400">
<g transform="translate(200,200) scale(1.2) translate(-200,-200)">
<path
    d="M180.870 48.067 C 180.870 51.548,174.547 62.870,166.819 73.228 C 149.480
    96.467,148.084 101.856,150.777 135.151 C 152.821 160.433,152.393
    162.679,142.061 180.870 C 107.013 242.575,109.565 235.590,109.565 269.823 C
    109.565 326.882,140.005 356.584,198.194 356.304 C 287.709 355.873,326.938
    263.287,266.367 195.404 C 254.038 181.586,244.780 166.918,239.844 153.381 C
    234.369 138.366,227.460 128.040,214.986 116.229 C 194.828 97.144,191.548
    90.092,192.075 66.968 C 192.289 57.584,191.328 48.069,189.939 45.823 C
    186.116 39.636,180.870 40.935,180.870 48.067 M175.423 252.343 C 193.358
    264.095,195.429 290.510,179.246 301.114 C 157.552 315.328,129.038
    276.881,146.957 257.577 C 150.492 253.767,150.330 253.437,146.087 255.810 C
    141.590 258.324,141.529 257.914,145.643 252.842 C 151.602 245.496,164.639
    245.278,175.423 252.343 M248.900 252.432 C 252.614 255.443,253.430
    256.752,250.713 255.340 C 246.917 253.366,246.405 254.312,248.499 259.429 C
    254.280 273.555,254.329 277.803,248.828 288.439 C 243.808 298.148,231.911
    306.087,222.382 306.087 C 214.244 306.087,205.217 291.617,205.217 278.570 C
    205.217 255.035,232.200 238.889,248.900 252.432 " fill-rule="evenodd">
</path>
</g>
</svg>
