<?xml version="1.0" encoding="utf-8"?>
<!-- Generator: Adobe Illustrator 26.1.0, SVG Export Plug-In . SVG Version: 6.00 Build 0)  -->
<svg version="1.1" id="Layer_1" xmlns="http://www.w3.org/2000/svg" xmlns:xlink="http://www.w3.org/1999/xlink" x="0px" y="0px"
	 viewBox="0 0 300 300" style="enable-background:new 0 0 300 300;" xml:space="preserve">
<style type="text/css">
	.st0{clip-path:url(#SVGID_00000174595968037233879400000007569403284196945559_);fill:#231F20;}
</style>
<g>
	<defs>
		<rect id="SVGID_1_" x="0.17" y="0.17" width="299.83" height="299.83"/>
	</defs>
	<clipPath id="SVGID_00000048503221623114194120000015316967210243091364_">
		<use xlink:href="#SVGID_1_"  style="overflow:visible;"/>
	</clipPath>
	<path style="clip-path:url(#SVGID_00000048503221623114194120000015316967210243091364_);fill:#231F20;" d="M173.06,91.26v8.64
		c-7.33-1.77-15-2.7-22.89-2.7s-15.56,0.93-22.89,2.7v-8.64c0-3.2,2.29-5.92,5.43-6.52c5.65-1.08,11.49-1.65,17.46-1.65
		c5.97,0,11.81,0.56,17.46,1.65C170.77,85.34,173.06,88.06,173.06,91.26"/>
	<path style="clip-path:url(#SVGID_00000048503221623114194120000015316967210243091364_);fill:#231F20;" d="M144.55,62.69
		c-0.22-0.22-3.57,7.79,0.1,9.91c3.47,1.53,8.45-1.24,12.44,1.81c1.26-2.75-0.15-5.24-2.04-6.74
		C153.26,66.02,144.98,67.03,144.55,62.69"/>
	<path style="clip-path:url(#SVGID_00000048503221623114194120000015316967210243091364_);fill:#231F20;" d="M150.98,53.7
		c-0.14-0.26-5.77,6.1-3.25,9.16c2.52,2.5,7.75,1.58,10.22,5.63c1.99-2.09,1.63-4.88,0.49-6.87
		C157.45,59.53,149.85,57.87,150.98,53.7"/>
	<path style="clip-path:url(#SVGID_00000048503221623114194120000015316967210243091364_);fill:#231F20;" d="M159.79,47.38
		c-0.07-0.28-7.4,3.94-6.19,7.58c1.35,3.12,6.28,3.86,7.04,8.42c2.46-1.35,3.17-4.11,2.9-6.32
		C163.43,54.8,157.23,50.93,159.79,47.38"/>
	<path style="clip-path:url(#SVGID_00000048503221623114194120000015316967210243091364_);fill:#231F20;" d="M170.4,44.25
		c-0.01-0.31-8.49,1.32-8.72,5.1c0.04,3.33,4.21,5.49,3.18,10.01c2.71-0.55,4.49-2.92,5.13-5.04
		C170.8,52.22,166.54,46.71,170.4,44.25"/>
	<path style="clip-path:url(#SVGID_00000048503221623114194120000015316967210243091364_);fill:#231F20;" d="M175.78,44.59
		c-0.04-0.09-4.45,0.44-4.45,2.2c0.09,2.27,1.62,6,0.1,9.03C173.21,55.42,175.78,51.67,175.78,44.59"/>
	<path style="clip-path:url(#SVGID_00000048503221623114194120000015316967210243091364_);fill:#231F20;" d="M156.46,77.45
		c-0.05,0-0.71-2.4-2.76-2.5c-2.84-0.26-8.18,2.08-11.44-0.51C141.68,78.3,147.13,80.22,156.46,77.45"/>
	<path style="clip-path:url(#SVGID_00000048503221623114194120000015316967210243091364_);fill:#231F20;" d="M180.33,40.66
		c-1.56-0.72-1.96-1.98-0.31-3.53l6.51-6.12c0.39-0.37,1.17-0.41,1.78-0.14c0.61,0.28,0.91,0.82,0.64,1.24l-4.36,7.11
		C183.49,41.03,181.9,41.38,180.33,40.66"/>
	<path style="clip-path:url(#SVGID_00000048503221623114194120000015316967210243091364_);fill:#231F20;" d="M182.57,49.64
		c-0.19,1.71,0.68,2.7,2.86,2.09l8.61-2.41c0.52-0.14,0.96-0.79,1.03-1.45c0.08-0.66-0.23-1.2-0.73-1.19L186,46.74
		C183.89,46.75,182.77,47.94,182.57,49.64"/>
	<path style="clip-path:url(#SVGID_00000048503221623114194120000015316967210243091364_);fill:#231F20;" d="M178.02,58.41
		c-1.26,1.17-1.24,2.49,0.81,3.45l8.11,3.76c0.49,0.23,1.24,0.02,1.73-0.43s0.6-1.06,0.22-1.38l-6.38-5.37
		C180.9,57.07,179.28,57.24,178.02,58.41"/>
	<path style="clip-path:url(#SVGID_00000048503221623114194120000015316967210243091364_);fill:#231F20;" d="M170.45,38.09
		c-1.6,0.64-2.78,0.05-2.77-2.21l0.06-8.94c0-0.54,0.51-1.13,1.13-1.38c0.62-0.25,1.22-0.09,1.35,0.39l2.14,8.06
		C172.9,36.06,172.05,37.46,170.45,38.09"/>
	<path style="clip-path:url(#SVGID_00000048503221623114194120000015316967210243091364_);fill:#231F20;" d="M150.17,102.45
		c-49.34,0-89.33,38.6-89.33,86.22s40,86.22,89.33,86.22c49.34,0,89.33-38.6,89.33-86.22S199.51,102.45,150.17,102.45
		 M202.55,191.29l-12.94,12.94l-36.93,36.93c-1.38,1.38-3.63,1.38-5.01,0l-36.93-36.93l-12.94-12.94c-9.18-9.18-9.18-24.08,0-33.26
		l6.17-6.17c9.18-9.18,24.08-9.18,33.26,0l11.26,11.27c0.93,0.93,2.43,0.93,3.36,0l11.26-11.27c9.18-9.18,24.08-9.18,33.26,0
		l6.17,6.17C211.73,167.21,211.73,182.11,202.55,191.29"/>
</g>
</svg>
