<svg class="svg_icon shadow" xmlns="http://www.w3.org/2000/svg" xmlns:xlink="http://www.w3.org/1999/xlink" viewBox="0, 0, 400,400">
<g transform="translate(200,200) scale(1.2) translate(-200,-200)">
<path
    d="M232.911 60.420 C 232.786 64.162,211.361 81.348,197.718 88.651 C 194.191
    90.539,191.304 94.861,191.304 98.255 C 191.304 108.214,176.189
    135.014,169.551 136.823 C 165.668 137.882,164.218 140.490,165.563 143.995 C
    168.547 151.769,156.179 184.348,150.245 184.348 C 147.111 184.348,146.140
    186.426,147.553 190.108 C 150.357 197.415,140.026 229.968,133.173 235.421 C
    130.327 237.685,129.052 241.242,130.340 243.325 C 133.674 248.720,122.011
    281.853,115.960 284.175 C 113.179 285.242,111.766 288.360,112.819 291.104 C
    115.461 297.989,106.328 314.529,90.257 331.964 C 77.553 345.746,77.068
    347.059,82.053 354.175 C 91.448 367.588,103.589 364.085,111.476 345.687 C
    121.224 322.945,131.555 309.565,139.367 309.565 C 143.537 309.565,146.087
    307.172,146.087 303.259 C 146.087 295.485,161.908 279.954,174.783 275.090 C
    180.043 273.103,184.348 269.272,184.348 266.578 C 184.348 260.072,211.522
    235.708,215.818 238.363 C 217.667 239.506,220.175 237.603,221.392 234.134 C
    225.029 223.762,247.872 201.739,254.991 201.739 C 259.574 201.739,260.970
    200.061,259.523 196.290 C 257.216 190.278,280.412 160.000,287.325 160.000 C
    289.587 160.000,291.475 156.478,291.520 152.174 C 291.632 141.376,300.396
    112.126,304.854 107.668 C 311.489 101.033,298.964 80.246,288.252 80.113 C
    278.230 79.989,272.746 75.045,270.764 64.348 C 269.294 56.413,233.172
    52.665,232.911 60.420 " fill-rule="evenodd">
</path>
</g>
</svg>
