<svg class="svg_icon shadow" xmlns="http://www.w3.org/2000/svg" xmlns:xlink="http://www.w3.org/1999/xlink" viewBox="0, 0, 400,400">
<g transform="translate(200,200) scale(1.2) translate(-200,-200)">
<path
    d="M183.478 95.067 C 179.325 105.212,180.171 123.829,184.585 119.415 C
    186.629 117.371,187.803 109.624,187.194 102.197 C 186.376 92.228,185.405
    90.362,183.478 95.067 M289.839 117.657 C 245.348 146.848,247.805
    143.510,258.695 159.967 L 267.974 173.988 289.639 159.868 C 301.555
    152.102,316.783 143.287,323.478 140.278 C 330.174 137.270,338.000
    133.666,340.870 132.269 C 348.368 128.620,349.500 106.518,342.544 99.563 C
    333.730 90.749,327.687 92.823,289.839 117.657 M142.719 105.550 C 142.658
    107.168,145.294 113.038,148.576 118.594 C 154.449 128.537,160.000
    131.849,160.000 125.411 C 160.000 121.259,142.867 101.569,142.719 105.550
    M220.959 128.551 C 218.078 133.212,264.133 205.217,269.995 205.217 C 277.954
    205.217,275.755 200.126,251.304 161.941 C 227.989 125.528,224.917
    122.147,220.959 128.551 M114.783 137.068 C 114.783 139.519,134.216
    149.565,138.958 149.565 C 145.754 149.565,142.661 143.092,134.783 140.828 C
    116.708 135.633,114.783 135.271,114.783 137.068 M184.612 156.906 C 183.691
    188.525,187.827 197.702,205.673 203.629 L 222.609 209.255 222.950 227.236 L
    223.291 245.217 229.037 226.745 C 232.197 216.585,238.311 205.617,242.623
    202.371 L 250.463 196.471 237.809 177.366 C 220.208 150.792,221.276
    151.335,206.452 161.408 L 193.095 170.484 188.986 159.155 C 185.073
    148.366,184.864 148.259,184.612 156.906 M160.000 177.174 L 160.000 191.281
    104.348 228.363 L 48.696 265.445 48.696 297.835 L 48.696 330.224 100.000
    296.795 C 128.217 278.409,160.425 257.185,171.572 249.632 C 182.720
    242.079,192.195 236.430,192.628 237.080 C 193.061 237.729,195.182
    242.174,197.342 246.957 C 201.529 256.231,201.574 256.054,203.188 223.768 C
    203.380 219.935,198.502 216.312,188.788 213.074 C 173.720 208.052,167.030
    196.370,166.976 174.988 C 166.965 170.796,165.391 166.400,163.478 165.217 C
    161.378 163.919,160.000 168.656,160.000 177.174 M244.257 251.033 C 245.076
    253.489,252.580 257.478,260.933 259.896 C 278.571 265.003,275.678
    260.306,256.167 252.160 C 246.165 247.985,243.146 247.699,244.257 251.033
    M226.087 271.432 C 226.087 276.587,240.238 296.574,242.375 294.437 C 244.451
    292.361,234.198 272.429,229.590 269.581 C 227.663 268.390,226.087
    269.223,226.087 271.432 M200.870 280.246 C 199.435 281.705,198.360
    289.290,198.481 297.101 C 198.681 309.979,199.021 310.505,202.120 302.743 C
    205.916 293.232,204.963 276.083,200.870 280.246 " fill-rule="evenodd">
</path>
</g>
</svg>
