<svg class="svg_icon shadow" xmlns="http://www.w3.org/2000/svg" xmlns:xlink="http://www.w3.org/1999/xlink" viewBox="0, 0, 400,400">
<g transform="translate(200,200) scale(1.2) translate(-200,-200)">
<path
    d="M176.634 64.526 C 175.579 65.580,177.824 74.580,181.622 84.526 C 187.382
    99.609,187.864 104.458,184.529 113.758 C 181.280 122.819,181.557
    126.892,186.007 135.498 C 192.619 148.284,191.665 148.482,175.692 137.643 C
    168.849 132.999,161.344 128.532,159.016 127.716 C 156.051 126.678,156.743
    124.024,161.328 118.858 C 172.275 106.523,152.519 70.822,139.980 80.279 C
    97.542 112.285,89.194 135.491,96.647 200.739 C 99.337 224.296,98.993
    226.488,90.999 236.702 C 80.931 249.567,83.608 258.348,105.624 284.677 C
    115.174 296.097,118.261 302.945,118.261 312.708 C 118.261 338.028,140.773
    347.669,200.139 347.772 C 260.031 347.875,277.565 339.982,281.477 311.155 C
    283.266 297.971,286.531 289.058,290.881 285.480 C 312.524 267.679,317.971
    249.861,306.509 234.358 C 299.009 224.214,298.800 222.325,302.349 196.804 C
    311.719 129.441,291.590 89.817,237.772 69.681 C 220.280 63.137,181.309
    59.850,176.634 64.526 M160.785 187.813 C 167.049 191.632,174.913
    194.762,178.261 194.770 C 187.851 194.790,185.462 200.272,170.804 211.882 C
    153.979 225.207,145.796 225.358,131.526 212.609 L 120.335 202.609 131.204
    191.739 C 144.003 178.941,145.834 178.697,160.785 187.813 M264.680 188.063 C
    277.226 196.996,277.536 206.025,265.618 215.400 C 253.014 225.314,243.817
    224.449,228.619 211.921 C 214.477 200.264,212.284 194.795,221.739 194.760 C
    225.087 194.747,232.522 191.627,238.261 187.826 C 251.246 179.226,252.284
    179.236,264.680 188.063 M211.481 231.397 C 223.942 257.046,220.353
    262.816,194.506 258.683 C 178.434 256.113,177.160 250.473,187.897 229.427 C
    196.977 211.628,202.083 212.055,211.481 231.397 " fill-rule="evenodd">
</path>
</g>
</svg>
