<svg class="svg_icon shadow" xmlns="http://www.w3.org/2000/svg" xmlns:xlink="http://www.w3.org/1999/xlink" viewBox="0, 0, 400,400">
<g transform="translate(200,200) scale(1.2) translate(-200,-200)">
<path
    d="M126.936 92.968 C 105.108 119.432,76.270 175.143,67.262 208.250 L 61.233
    230.413 73.015 253.137 C 89.211 284.376,124.221 318.702,157.202 335.680 C
    188.107 351.589,190.363 351.053,203.275 324.749 C 222.384 285.821,220.034
    249.084,194.633 189.631 C 174.655 142.871,173.811 124.048,189.820 82.330 C
    191.147 78.871,187.127 76.296,176.046 73.505 C 150.002 66.947,147.621
    67.891,126.936 92.968 M230.721 76.183 C 204.028 78.768,203.961
    78.842,202.397 107.143 C 201.060 131.339,201.746 134.012,222.584 185.861 C
    242.845 236.272,240.413 276.099,214.020 326.087 C 200.435 351.817,202.997
    353.274,234.092 337.504 C 297.239 305.479,336.511 255.472,332.846 211.755 C
    328.363 158.288,279.868 70.629,256.401 73.574 C 254.076 73.866,242.520
    75.039,230.721 76.183 M237.503 109.038 C 271.770 123.398,288.220
    152.124,292.451 204.990 C 294.984 236.627,294.592 242.825,289.585 250.380 C
    286.395 255.193,280.072 266.531,275.532 275.576 C 267.864 290.857,241.896
    316.099,237.927 312.130 C 236.963 311.166,239.482 300.558,243.525 288.557 C
    248.939 272.485,250.837 258.405,250.729 235.108 C 250.649 217.711,251.484
    196.124,252.584 187.135 C 254.813 168.927,244.162 153.043,229.723 153.043 C
    225.810 153.043,222.609 152.389,222.609 151.589 C 222.609 150.789,221.659
    147.658,220.497 144.632 C 217.480 136.770,228.671 137.551,242.845 146.193 C
    260.201 156.774,268.558 178.714,267.756 211.593 C 266.899 246.762,266.931
    246.957,273.469 246.957 C 277.750 246.957,278.192 245.848,275.301 242.364 C
    272.573 239.077,272.521 231.412,275.116 215.407 C 283.488 163.771,265.194
    127.240,227.416 120.153 C 218.815 118.539,215.652 116.118,215.652 111.147 C
    215.652 103.154,222.000 102.541,237.503 109.038 M166.957 110.731 C 166.957
    112.329,159.913 120.781,151.304 129.513 C 142.696 138.245,135.652
    146.843,135.652 148.620 C 135.652 156.221,158.655 185.661,170.953 193.800 C
    194.674 209.497,209.301 274.961,196.819 309.565 C 186.876 337.131,150.559
    320.661,128.454 278.562 C 122.842 267.875,115.269 255.217,111.624 250.435 C
    102.521 238.490,106.401 181.252,118.162 153.993 C 128.960 128.963,166.957
    95.275,166.957 110.731 M123.907 187.671 C 120.406 209.560,124.095
    217.685,143.059 229.854 C 161.117 241.442,166.957 248.915,166.957 260.436 C
    166.957 270.494,160.616 272.940,152.824 265.889 C 144.624 258.467,143.151
    265.959,150.763 276.370 C 162.566 292.512,184.192 270.002,179.110 246.864 C
    177.226 238.287,152.225 203.333,128.641 176.305 C 127.285 174.751,125.155
    179.866,123.907 187.671 " fill-rule="evenodd" >
</path>
</g>
</svg>
