<?xml version="1.0" encoding="utf-8"?>
<!-- Generator: Adobe Illustrator 26.1.0, SVG Export Plug-In . SVG Version: 6.00 Build 0)  -->
<svg version="1.1" id="Layer_1" xmlns="http://www.w3.org/2000/svg" xmlns:xlink="http://www.w3.org/1999/xlink" x="0px" y="0px"
	 viewBox="0 0 300 300" style="enable-background:new 0 0 300 300;" xml:space="preserve">
<style type="text/css">
	.st0{clip-path:url(#SVGID_00000156586645719472459000000009055963437449760661_);}
	.st1{clip-path:url(#SVGID_00000005265503970807952510000016738274252043764631_);fill:#231F20;}
	.st2{clip-path:url(#SVGID_00000118387962285451215860000012835080948495809168_);}
	.st3{clip-path:url(#SVGID_00000134931289409308768780000011088888918501596092_);fill:#231F20;}
	.st4{clip-path:url(#SVGID_00000149362131401503446550000001572877555574281867_);}
	.st5{clip-path:url(#SVGID_00000121991760165939001740000004904706604630734722_);fill:#231F20;}
	.st6{clip-path:url(#SVGID_00000167370218186655564620000011065873120650328505_);}
	.st7{clip-path:url(#SVGID_00000046319864318130106200000016111220771829287306_);}
</style>
<g>
	<g>
		<defs>
			<rect id="SVGID_00000019644907090763854020000009900087319657811089_" width="300" height="300"/>
		</defs>
		<clipPath id="SVGID_00000016761318309815329090000001183613039449621165_">
			<use xlink:href="#SVGID_00000019644907090763854020000009900087319657811089_"  style="overflow:visible;"/>
		</clipPath>
		<g style="clip-path:url(#SVGID_00000016761318309815329090000001183613039449621165_);">
			<defs>
				<rect id="SVGID_00000043441008611693418830000007139801672528205697_" width="300" height="300"/>
			</defs>
			<clipPath id="SVGID_00000054259369900569569940000017053654594969542297_">
				<use xlink:href="#SVGID_00000043441008611693418830000007139801672528205697_"  style="overflow:visible;"/>
			</clipPath>
			<path style="clip-path:url(#SVGID_00000054259369900569569940000017053654594969542297_);fill:#231F20;" d="M204.36,112.52
				c-12.04,0.73-25.9,4.38-70.41,36.86L81.77,94.65c0,0,22.04-27.06,43.41-52.86c13.06,3.79,30.05,12.29,55.54,40.6
				c-12.14-23.46-36.39-41.7-49.2-48.24c2.83-3.41,5.61-6.74,8.28-9.93C182.84,45.02,201.45,93.55,204.36,112.52"/>
			<path style="clip-path:url(#SVGID_00000054259369900569569940000017053654594969542297_);fill:#231F20;" d="M76.73,98.55
				c0,0-14.6,5.84-16.78,28.46c13.5,12.04,21.89,15.32,25.54,18.97c3.5,3.5,94.79,95.13,124.87,127.81
				c2.19,2.38,5.83,2.65,8.39,0.68c15.27-11.77,19.89-31.08,21.25-40.2c0.39-2.6-1.76-4.88-4.38-4.64l-16.77,1.51
				c-6.81,0.61-13.54-1.86-18.34-6.74L76.73,98.55z"/>
		</g>
	</g>
</g>
</svg>
