<svg xmlns="http://www.w3.org/2000/svg" xmlns:xlink="http://www.w3.org/1999/xlink" viewBox="0 0 300 300"><defs><style>.cls-1{fill:none;}.cls-2{clip-path:url(#clip-path);}.cls-3{fill:#231f20;}</style><clipPath id="clip-path"><rect class="cls-1" width="300" height="300"/></clipPath></defs><g id="Layer_2" data-name="Layer 2"><g id="Layer_1-2" data-name="Layer 1"><g class="cls-2"><g class="cls-2"><path class="cls-3" d="M94,264.22s21-12.61,29.44-29.43,5.78-24.71,5.78-24.71,15.24,0,17.61-15.77c7.62,6.31,18.92,8.15,26.81,3.42,6.57,4.73,26.87,4.34,33.64-7.1,7.62-12.88,3.25-19.71,1.84-22.87,4.47,1.32,7.89.53,12.88-1.57,5,2.89,24.91,10.53,41-.79,7.1-5,13.41-13.14,13.41-23.13,7.88-11,1.31-43.9-14.72-49.94,0-6.83-21.29-23.92-33.12-23.66-4.2-7.36-13.67-16.29-25.76-16.29-9.72-10.52-27.59-15.51-43.63-13.14-12.09-6.05-23.39-2.9-30.49-.15a42.15,42.15,0,0,0-26.81,1.72c-15.77,2.37-24.7,7.63-28.38,14.72C54.55,63.15,40.89,77.35,40.36,93.91c-10.51,9.46-13.67,19.71-11.57,27.33-8.67,8.15-12.09,21.82-3.67,28.81-3.16,15.87,7.35,25.86,21,26.39C18.54,195.36,69.8,231.11,101.08,229c.52,6.58-.79,24.71-7.1,35.22"/></g></g></g></g></svg>