<?xml version="1.0" encoding="utf-8"?>
<!-- Generator: Adobe Illustrator 26.1.0, SVG Export Plug-In . SVG Version: 6.00 Build 0)  -->
<svg version="1.1" id="Layer_1" xmlns="http://www.w3.org/2000/svg" xmlns:xlink="http://www.w3.org/1999/xlink" x="0px" y="0px"
	 viewBox="0 0 300 300" style="enable-background:new 0 0 300 300;" xml:space="preserve">
<style type="text/css">
	.st0{clip-path:url(#SVGID_00000171721417384092961610000004426605973839588236_);}
	.st1{clip-path:url(#SVGID_00000166660628874809449370000005871306053962294407_);fill:#231F20;}
	.st2{clip-path:url(#SVGID_00000030471349055897819900000009469874923232382339_);}
	.st3{clip-path:url(#SVGID_00000089536854013774653860000012251175524432688017_);fill:#231F20;}
	.st4{clip-path:url(#SVGID_00000068665694406702555830000007898175170474915247_);}
	.st5{clip-path:url(#SVGID_00000006690197993674598070000007534567021933094838_);fill:#231F20;}
	.st6{clip-path:url(#SVGID_00000098210561057686424160000006600580293199803820_);}
	.st7{clip-path:url(#SVGID_00000050627833589818106980000008699531240552321983_);}
</style>
<g>
	<g>
		<defs>
			<rect id="SVGID_00000124122597320381689320000009147200226376110270_" width="300" height="300"/>
		</defs>
		<clipPath id="SVGID_00000072996481753699534070000014029095168637846924_">
			<use xlink:href="#SVGID_00000124122597320381689320000009147200226376110270_"  style="overflow:visible;"/>
		</clipPath>
		<g style="clip-path:url(#SVGID_00000072996481753699534070000014029095168637846924_);">
			<defs>
				<rect id="SVGID_00000015322671957859308840000001275084397995357572_" width="300" height="300"/>
			</defs>
			<clipPath id="SVGID_00000161601315002472698420000000106536724864172457_">
				<use xlink:href="#SVGID_00000015322671957859308840000001275084397995357572_"  style="overflow:visible;"/>
			</clipPath>
			<path style="clip-path:url(#SVGID_00000161601315002472698420000000106536724864172457_);fill:#231F20;" d="M113.54,230.17
				c4.86,0,8.86,3.73,9.29,8.48l9.18,5.3c0.35-1.42,0.53-2.91,0.53-4.44c0-10.5-8.51-19-19-19c-10.5,0-19,8.5-19,19
				c0,10.49,8.5,19,19,19c4.48,0,8.6-1.55,11.84-4.15l-9.55-5.51c-0.12-0.07-0.24-0.14-0.35-0.21c-0.63,0.13-1.28,0.2-1.94,0.2
				c-5.16,0-9.34-4.18-9.34-9.33C104.2,234.35,108.38,230.17,113.54,230.17"/>
			<path style="clip-path:url(#SVGID_00000161601315002472698420000000106536724864172457_);fill:#231F20;" d="M249.99,178.91
				l-18.93-9.83c-0.95-0.5-1.97-0.73-2.97-0.73c-2.32,0-4.56,1.24-5.73,3.39l-1.91-1.1c1.33-2.55,0.85-5.78-1.37-7.81l-15.75-14.39
				c-1.24-1.13-2.8-1.69-4.37-1.69c-1.48,0-2.96,0.5-4.15,1.49l-0.3-0.42c2.27-1.91,3.02-5.21,1.61-7.95l-9.77-18.97
				c-1.15-2.23-3.44-3.51-5.8-3.51c-0.13,0-0.26,0-0.39,0.01l-0.09-0.51c3.4-0.41,5.95-3.42,5.73-6.88l-1.4-21.28
				c-0.1-1.42-0.65-2.7-1.5-3.72c-6.21,1.05-13.21,2.46-20.45,4.73c0,0.14-0.01,0.28-0.01,0.43l1.4,21.28
				c0.23,3.43,3.1,6.08,6.49,6.08c0.14,0,0.28-0.01,0.42-0.02l0.96-0.06l0.58,3.38l-2.7,1.39c-3.18,1.64-4.44,5.58-2.8,8.76
				l9.77,18.96c1.15,2.24,3.44,3.52,5.8,3.52c1,0,2.01-0.23,2.95-0.72l1.81-0.92l1.9,2.65l-0.94,1.03
				c-2.41,2.64-2.23,6.77,0.41,9.18l15.75,14.39c1.24,1.14,2.81,1.7,4.38,1.7c1.77,0,3.53-0.71,4.8-2.11l1.47-1.61l3.62,2.09
				l-0.36,0.7c-1.65,3.17-0.41,7.11,2.77,8.76l18.93,9.84c0.95,0.49,1.97,0.72,2.98,0.72c2.35,0,4.63-1.27,5.78-3.5l4.15-7.98
				C254.41,184.51,253.16,180.56,249.99,178.91 M173.46,103.07c-1.63,0.28-2.87,1.49-3.29,2.99l-0.83-12.67v-0.05l0.08,0.32
				c0.45,1.91,2.17,3.2,4.05,3.2c0.32,0,0.65-0.04,0.97-0.12c2.23-0.53,3.61-2.79,3.08-5.02l-0.11-0.46
				c0.32,0.44,0.54,0.98,0.58,1.56l0.95,14.47c0.03,0.51-0.08,0.99-0.28,1.42l-0.38-2.24c-0.35-2.03-2.12-3.46-4.11-3.46
				C173.93,103.01,173.7,103.03,173.46,103.07 M185.05,137.68c-0.84,0-1.68,0.25-2.41,0.77c-1.86,1.34-2.28,3.95-0.95,5.82
				l0.85,1.18c-0.62-0.26-1.17-0.73-1.5-1.37l-5.76-11.17c0.76,0.68,1.75,1.1,2.81,1.1c0.22,0,0.46-0.02,0.69-0.06
				c2.26-0.39,3.79-2.56,3.4-4.82l-0.42-2.43c0.13,0.15,0.24,0.33,0.34,0.52l6.16,11.96C187.45,138.2,186.25,137.68,185.05,137.68
				 M211.15,165.94c-1.43,0-2.83,0.74-3.6,2.07c-0.9,1.55-0.66,3.45,0.44,4.76c-0.58-0.09-1.13-0.34-1.59-0.75l-8.05-7.37
				c0.05,0.01,0.11,0.01,0.17,0.01c0.84,0,1.68-0.24,2.41-0.76c1.86-1.34,2.29-3.96,0.95-5.82l-2.16-3.01
				c0.66,0.05,1.3,0.29,1.82,0.77l10.71,9.78c0.21,0.19,0.37,0.41,0.51,0.65C212.24,166.05,211.69,165.94,211.15,165.94
				 M245.39,187.41l-1.23,2.37c-0.54,1.03-1.59,1.62-2.67,1.62c-0.47,0-0.94-0.11-1.38-0.34l-12.87-6.68
				c-0.34-0.18-0.62-0.42-0.86-0.69l2.62,1.51c0.65,0.37,1.36,0.55,2.07,0.55c1.44,0,2.85-0.74,3.62-2.08
				c1.14-1.98,0.46-4.54-1.53-5.69l-2.7-1.56c0.27,0.06,0.53,0.13,0.78,0.26l12.87,6.69C245.57,184.13,246.15,185.95,245.39,187.41"
				/>
			<path style="clip-path:url(#SVGID_00000161601315002472698420000000106536724864172457_);fill:#231F20;" d="M168.5,66.18
				l1.8,3.12c-1.85-0.21-3.74-0.37-5.66-0.48c-0.13-0.01-0.27-0.02-0.4-0.03c0.05-0.12,0.11-0.25,0.17-0.36
				c0.54-1.04,1.5-1.86,2.72-2.16c0.33-0.08,0.65-0.11,0.97-0.11C168.23,66.16,168.37,66.17,168.5,66.18"/>
			<polygon style="clip-path:url(#SVGID_00000161601315002472698420000000106536724864172457_);fill:#231F20;" points="
				162.18,68.56 162.12,68.71 162.26,68.71 			"/>
			<polygon style="clip-path:url(#SVGID_00000161601315002472698420000000106536724864172457_);fill:#231F20;" points="
				162.18,68.56 162.12,68.71 162.26,68.71 			"/>
			<path style="clip-path:url(#SVGID_00000161601315002472698420000000106536724864172457_);fill:#231F20;" d="M179.65,68.14
				l-10.69-18.46c-1.2-2.07-3.39-3.24-5.64-3.24c-1.11,0-2.22,0.28-3.24,0.87l-4.13,2.39l-4.75-3.8l0.93-2.59
				c1.21-3.37-0.56-7.11-3.93-8.32l-20.08-7.18c-0.72-0.26-1.45-0.38-2.18-0.38c-2.67,0-5.18,1.66-6.13,4.3l-2.15,6l-5.77,1.23
				l-2.2-2.87c-1.27-1.67-3.21-2.54-5.17-2.55c-1.38,0-2.77,0.44-3.94,1.33L83.63,47.83c-2.84,2.17-3.39,6.27-1.22,9.11l1.04,1.35
				l-2.49,2.48l-4.4-1.09c-0.52-0.13-1.04-0.19-1.56-0.19c-2.91,0-5.58,1.98-6.31,4.93l-5.15,20.7c-0.87,3.47,1.27,7.01,4.74,7.88
				l3.01,0.75v6.26l-1.97,0.48c-3.47,0.85-5.61,4.39-4.76,7.86l1.74,7.07c4.99-6.45,10.21-12.03,15.53-16.85
				c-0.7-0.26-1.45-0.4-2.21-0.4v-2.9c2.49-0.41,4.62-2.25,5.27-4.84l5.15-20.7c0.34-1.38,0.2-2.77-0.29-3.99
				c1.01,0.59,2.15,0.89,3.31,0.89c1.38,0,2.76-0.43,3.93-1.32l16.95-12.96c1.86-1.42,2.73-3.66,2.51-5.84l1.21-0.26
				c0.74,1.01,1.78,1.82,3.04,2.27l20.09,7.19c0.72,0.25,1.45,0.38,2.17,0.38c1.86,0,3.65-0.81,4.88-2.2l1.62,1.29
				c-0.65,1.76-0.54,3.78,0.46,5.52l4.64,8.02c1.45-0.06,2.81-0.08,4.08-0.08c1.16,0,2.33,0.03,3.48,0.07l0.06-0.15l-3.7-6.38
				c0.52,0.22,1.08,0.33,1.63,0.33c1.22,0,2.42-0.53,3.24-1.55c1.43-1.78,1.14-4.42-0.65-5.85l-0.49-0.39
				c0.08-0.01,0.15-0.01,0.22-0.01c1.03,0,2.05,0.53,2.6,1.48l4.75,8.2l0.8,1.4l1.71,2.95c0.16,0.27,0.25,0.56,0.32,0.85
				c0.22,0.03,0.44,0.06,0.66,0.1c0.36,0.05,0.71,0.1,1.06,0.16c2.14,0.33,4.21,0.73,6.18,1.2
				C180.46,70.05,180.18,69.06,179.65,68.14 M82.8,71.19l-3.23,13c-0.25-2.07-1.99-3.68-4.12-3.68c-2.29,0-4.16,1.87-4.16,4.16v0.84
				c-0.43-0.67-0.6-1.51-0.4-2.34l2.9-11.65c0.2,0.51,0.51,0.99,0.92,1.4c0.81,0.81,1.88,1.21,2.94,1.21c1.07,0,2.14-0.4,2.95-1.21
				l2.28-2.28C82.87,70.82,82.85,71.01,82.8,71.19 M107.38,48.98l-11.52,8.8c-0.1,0.08-0.21,0.13-0.32,0.2l1.32-1.33
				c1.63-1.62,1.63-4.27,0-5.89c-0.81-0.81-1.87-1.21-2.94-1.21c-1.07,0-2.14,0.4-2.95,1.21l-1.26,1.27
				c0.19-0.43,0.48-0.83,0.88-1.13l11.52-8.81c0.07-0.05,0.14-0.08,0.21-0.12c-0.76,0.94-1.13,2.2-0.86,3.47
				c0.42,1.95,2.16,3.3,4.08,3.3c0.29,0,0.58-0.03,0.87-0.09l1.59-0.34C107.83,48.56,107.63,48.79,107.38,48.98 M139.54,47.24
				l1.61,1.29h-0.1c-0.33,0-0.67-0.05-1-0.17l-12.06-4.32l0.91-0.19c2.24-0.48,3.69-2.7,3.21-4.95c-0.42-1.95-2.16-3.29-4.08-3.29
				c-0.29,0-0.58,0.03-0.87,0.09l-0.78,0.17c0.54-0.46,1.24-0.72,1.95-0.72c0.33,0,0.67,0.05,0.99,0.17l12.65,4.53
				c-1.16,0.04-2.3,0.56-3.08,1.53C137.46,43.17,137.75,45.81,139.54,47.24"/>
			<path style="clip-path:url(#SVGID_00000161601315002472698420000000106536724864172457_);fill:#231F20;" d="M164.41,68.43
				c-0.06,0.11-0.12,0.24-0.17,0.36c0.13,0.01,0.27,0.02,0.4,0.03L164.41,68.43z"/>
			<path style="clip-path:url(#SVGID_00000161601315002472698420000000106536724864172457_);fill:#231F20;" d="M197.49,215.22
				l-7.47-19.98c-0.98-2.6-3.47-4.22-6.11-4.22c-0.75,0-1.52,0.14-2.26,0.42l-1.18,0.44l-2.3-5.03l2.73-3.32
				c2.27-2.76,1.87-6.88-0.89-9.15l-16.47-13.56c-1.2-0.99-2.66-1.48-4.12-1.48c-1.88,0-3.75,0.81-5.03,2.37l-1.63,1.98l-7-2.23
				l0.26-2.26c0.39-3.55-2.19-6.78-5.74-7.18l-21.2-2.39c-0.24-0.02-0.48-0.04-0.72-0.04c-3.16,0-5.9,2.32-6.41,5.47l-2.19-0.53
				c-0.25-0.92-0.69-1.79-1.34-2.55l-3.05-3.53c-1.48,5.84-2.16,11.41-2.23,16.67l3.28-2.83l4.57,1.12l-0.1,0.9
				c-0.4,3.55,2.18,6.79,5.73,7.19l21.2,2.38c0.25,0.03,0.49,0.04,0.73,0.04c2.67,0,5.05-1.66,6.03-4.09l2.94,0.94
				c-0.8,2.47-0.08,5.29,2.04,7.03l16.47,13.56c1.2,0.99,2.66,1.47,4.11,1.47c0.51,0,1.02-0.06,1.52-0.18l1,2.19
				c-2.97,1.44-4.43,4.96-3.25,8.12l7.48,19.98c0.39,1.03,1.01,1.91,1.79,2.59l-0.14,0.49c-0.67-0.22-1.36-0.33-2.04-0.33
				c-2.59,0-5.05,1.57-6.06,4.12l-7.79,19.86c-0.26,0.67-0.4,1.36-0.43,2.04l-0.46,0.27c-0.38-0.23-0.79-0.42-1.22-0.57l-20.17-6.94
				c-0.7-0.24-1.41-0.36-2.1-0.36c-2.08,0-4.07,1.01-5.29,2.71l-1.55-0.9l-8.67-5l-1.77-1.02c-0.65-0.38-1.36-0.56-2.07-0.56
				c-1.44,0-2.85,0.75-3.62,2.08c-1.14,1.99-0.46,4.55,1.53,5.7l1.1,0.63l9.02,5.21l3.02,1.74l-0.8,2.31
				c-1.16,3.38,0.65,7.09,4.03,8.26l20.17,6.94c0.7,0.24,1.41,0.36,2.11,0.36c2.7,0,5.23-1.7,6.16-4.39l2.79-8.12l2.79-1.61
				l7.48,2.93c0.78,0.3,1.58,0.45,2.36,0.45c2.6,0,5.07-1.57,6.07-4.13l7.79-19.85c1.31-3.33-0.35-7.12-3.67-8.43l-0.91-0.36
				l0.88-3.05l6.47-2.42C197.03,222.34,198.75,218.57,197.49,215.22 M136.34,158.47c-0.42-0.13-0.84-0.2-1.25-0.2
				c-1.77,0-3.42,1.14-3.98,2.91c-0.7,2.18,0.52,4.54,2.7,5.23l1.38,0.44h-0.17c-0.03,0-0.06,0-0.09-0.01l-14.41-1.62
				c-0.4-0.04-0.76-0.16-1.09-0.34c1.39-0.4,2.55-1.5,2.91-3c0.51-2.08-0.68-4.18-2.66-4.89c0.44-0.25,0.95-0.4,1.48-0.4
				c0.11,0,0.21,0.01,0.32,0.02l14.41,1.62c0.51,0.06,0.97,0.25,1.37,0.53L136.34,158.47z M171.47,178.14
				c-0.57,0-1.15,0.12-1.7,0.37c-2.08,0.95-3.01,3.44-2.05,5.52l0.02,0.06c-0.1-0.07-0.21-0.13-0.3-0.21l-11.2-9.21
				c-0.47-0.39-0.79-0.89-0.95-1.43l0.44,0.14c0.42,0.13,0.84,0.19,1.26,0.19c0.88,0,1.74-0.28,2.44-0.79
				c0.7-0.5,1.26-1.22,1.54-2.11c0.36-1.13,0.2-2.3-0.33-3.26c0.39,0.11,0.77,0.29,1.11,0.57l11.2,9.21
				c0.56,0.47,0.9,1.11,1.02,1.78C173.25,178.44,172.37,178.14,171.47,178.14 M151.14,262.92c0.67,1.17,1.83,1.87,3.08,2.03
				c-0.24,0.06-0.48,0.09-0.72,0.09c-0.31,0-0.63-0.05-0.95-0.16l-13.71-4.72c-0.7-0.24-1.24-0.73-1.59-1.32
				c0.51,0.21,1.05,0.31,1.59,0.31c1.43,0,2.83-0.73,3.6-2.06c0.98-1.71,0.61-3.83-0.78-5.13l12.61,4.34l-1.61,0.93
				C150.68,258.38,149.99,260.94,151.14,262.92 M178.26,251.86c-0.46,1.17-1.6,1.89-2.8,1.89c-0.03,0-0.06,0-0.09-0.01l1.38-0.79
				c1.98-1.15,2.67-3.71,1.52-5.69c-0.77-1.34-2.18-2.08-3.62-2.08c-0.7,0-1.42,0.18-2.07,0.55l-1.58,0.91l4.49-11.45
				c0.17-0.41,0.42-0.77,0.72-1.06l-0.44,1.53c-0.63,2.2,0.65,4.52,2.86,5.15c0.37,0.11,0.75,0.16,1.13,0.16
				c1.45,0,2.81-0.77,3.56-2.01L178.26,251.86z M187.28,210.7c-0.38-0.11-0.76-0.16-1.14-0.16c-1.81,0-3.49,1.19-4.01,3.01
				l-0.71,2.46l-4.14-11.06c0.7,1.52,2.22,2.43,3.8,2.43c0.58,0,1.16-0.12,1.72-0.38c2.09-0.95,3.01-3.43,2.06-5.52l-1.07-2.34
				c0.48,0.34,0.87,0.82,1.09,1.41l4.22,11.26C188.61,211.31,188,210.91,187.28,210.7"/>
			<path style="clip-path:url(#SVGID_00000161601315002472698420000000106536724864172457_);fill:#231F20;" d="M108.37,127.34
				c-22.71,42.17-1.79,75.89,5.43,85.54c0.67,0.89,0.13,2.2-0.98,2.33c-10.57,1.25-19.28,8.64-22.47,18.5
				c-0.31,0.97-1.47,1.35-2.28,0.74c-4.99-3.79-16.03-13.24-24.08-27.83c-1.73,2.4-3.47,5.46-4.75,9.25
				c-0.27,0.79-1.42,0.72-1.57-0.1c-1.6-8.84-1.76-19.62-1.31-29.75c-0.12-0.06-0.05-0.02-0.17-0.08c-2.19,1.95-4.52,4.54-6.58,7.9
				c-0.44,0.72-1.55,0.39-1.51-0.44c0.48-10.97,3.69-24.28,7.11-35.67c-2.31,1.18-4.84,2.82-7.34,5.05
				c-0.66,0.58-1.61-0.11-1.3-0.92C83.7,64.01,165.7,68.34,188.7,79.01C167.37,82.34,129.37,88.34,108.37,127.34"/>
		</g>
	</g>
</g>
</svg>
