<?xml version="1.0" encoding="utf-8"?>
<!-- Generator: Adobe Illustrator 26.1.0, SVG Export Plug-In . SVG Version: 6.00 Build 0)  -->
<svg version="1.1" id="Layer_1" xmlns="http://www.w3.org/2000/svg" xmlns:xlink="http://www.w3.org/1999/xlink" x="0px" y="0px"
	 viewBox="0 0 300 300" style="enable-background:new 0 0 300 300;" xml:space="preserve">
<style type="text/css">
	.st0{clip-path:url(#SVGID_00000141450630769295673150000011310220904841538225_);}
	.st1{clip-path:url(#SVGID_00000049934606536813071030000010391827331491739795_);fill:#231F20;}
	.st2{clip-path:url(#SVGID_00000083772890173452816500000011008852663707131068_);}
	.st3{clip-path:url(#SVGID_00000179626719276641970190000012109151728880958395_);fill:#231F20;}
	.st4{clip-path:url(#SVGID_00000052090277230113119640000005421185571996980382_);}
	.st5{clip-path:url(#SVGID_00000004538404371487516990000004985764300731518599_);fill:#231F20;}
	.st6{clip-path:url(#SVGID_00000130629476653738946120000017292405352710527124_);}
	.st7{clip-path:url(#SVGID_00000121243840685354055690000008578511243310154374_);}
</style>
<g>
	<g>
		<defs>
			<rect id="SVGID_00000149374371541662062280000014472765397606494088_" width="300" height="300"/>
		</defs>
		<clipPath id="SVGID_00000164499511089981710240000014569795159320876223_">
			<use xlink:href="#SVGID_00000149374371541662062280000014472765397606494088_"  style="overflow:visible;"/>
		</clipPath>
		<g style="clip-path:url(#SVGID_00000164499511089981710240000014569795159320876223_);">
			<defs>
				<rect id="SVGID_00000004510027098994753260000003803726101441018525_" width="300" height="300"/>
			</defs>
			<clipPath id="SVGID_00000001658560885921569080000006509175070153748112_">
				<use xlink:href="#SVGID_00000004510027098994753260000003803726101441018525_"  style="overflow:visible;"/>
			</clipPath>
			<path style="clip-path:url(#SVGID_00000001658560885921569080000006509175070153748112_);" d="M94.19,79.41l176.85,181.7
				c2.68,2.75,2.65,7.14-0.07,9.85s-7.1,2.74-9.85,0.07L79.42,94.19c-0.35-0.34-0.27-0.9,0.14-1.15c2.7-1.62,5.24-3.59,7.57-5.92
				c2.32-2.32,4.3-4.87,5.92-7.57C93.29,79.14,93.85,79.07,94.19,79.41"/>
			<path style="clip-path:url(#SVGID_00000001658560885921569080000006509175070153748112_);" d="M90.14,97.89
				c0,0-19.69-2.69-42.12,15.06c-0.91,0.72-0.14,2.17,0.97,1.82c21.3-6.72,51.96-6.2,51.96-6.2L90.14,97.89z"/>
			<path style="clip-path:url(#SVGID_00000001658560885921569080000006509175070153748112_);" d="M104.22,101.83
				c0,0-19.86-0.59-40.29,19.44c-0.83,0.81,0.1,2.17,1.16,1.71c20.47-8.94,51.01-11.67,51.01-11.67L104.22,101.83z"/>
			<path style="clip-path:url(#SVGID_00000001658560885921569080000006509175070153748112_);" d="M90.14,97.89
				c0,0-19.69-2.69-42.12,15.06c-0.91,0.72-0.14,2.17,0.97,1.82c21.3-6.72,51.96-6.2,51.96-6.2L90.14,97.89z"/>
			<path style="clip-path:url(#SVGID_00000001658560885921569080000006509175070153748112_);" d="M104.22,101.83
				c0,0-19.86-0.59-40.29,19.44c-0.83,0.81,0.1,2.17,1.16,1.71c20.47-8.94,51.01-11.67,51.01-11.67L104.22,101.83z"/>
			<path style="clip-path:url(#SVGID_00000001658560885921569080000006509175070153748112_);" d="M97.89,90.14
				c0,0-2.69-19.69,15.06-42.12c0.72-0.91,2.17-0.14,1.82,0.97c-6.72,21.3-6.19,51.96-6.19,51.96L97.89,90.14z"/>
			<path style="clip-path:url(#SVGID_00000001658560885921569080000006509175070153748112_);" d="M101.83,104.22
				c0,0-0.59-19.86,19.44-40.29c0.81-0.83,2.17,0.1,1.71,1.16c-8.94,20.47-11.67,51.01-11.67,51.01L101.83,104.22z"/>
			<path style="clip-path:url(#SVGID_00000001658560885921569080000006509175070153748112_);" d="M122.86,102.59l2.1,22.37
				l-22.36-2.1c-1.87-0.18-3.52-1.83-3.7-3.7L96.8,96.8l22.36,2.1C121.03,99.07,122.69,100.73,122.86,102.59"/>
			<path style="clip-path:url(#SVGID_00000001658560885921569080000006509175070153748112_);" d="M131.64,113.02l1.93,20.55
				l-20.55-1.93c-1.87-0.18-3.52-1.83-3.7-3.7l-1.93-20.55l20.55,1.93C129.81,109.49,131.46,111.15,131.64,113.02"/>
			<path style="clip-path:url(#SVGID_00000001658560885921569080000006509175070153748112_);" d="M138.94,122.21l1.73,18.46
				l-18.46-1.73c-1.87-0.18-3.52-1.83-3.7-3.7l-1.73-18.46l18.47,1.73C137.11,118.69,138.77,120.34,138.94,122.21"/>
			<path style="clip-path:url(#SVGID_00000001658560885921569080000006509175070153748112_);" d="M36.45,36.45
				c-12.63,12.63-12.63,33.1,0,45.73s33.1,12.63,45.73,0s12.63-33.1,0-45.73C69.55,23.82,49.07,23.82,36.45,36.45 M83.65,53.48
				c-1.18,1.18-2.83-7.54-11.08-11.55c-8.25-4.01-12.49-2.12-12.49-4.48c0-3.43,9.25-3.12,15.61,2.3
				C82.06,45.17,84.83,52.3,83.65,53.48"/>
		</g>
	</g>
</g>
</svg>
