<svg xmlns="http://www.w3.org/2000/svg" xmlns:xlink="http://www.w3.org/1999/xlink" viewBox="0 0 300 300"><defs><style>.cls-1{fill:none;}.cls-2{clip-path:url(#clip-path);}.cls-3{fill:#231f20;}</style><clipPath id="clip-path"><rect class="cls-1" width="300" height="300"/></clipPath></defs><g id="Layer_2" data-name="Layer 2"><g id="Layer_1-2" data-name="Layer 1"><g class="cls-2"><g class="cls-2"><path class="cls-3" d="M249.81,202.56,233.09,67.47a3.55,3.55,0,0,0-1.28-2.34c-4.52-3.68-23.53-16.18-70.89-13.67C121,53.57,103,68.87,98.31,73.55a3.55,3.55,0,0,0-1,3.1l18,107.85,0,0c-10.29-3.45-23.71-2.6-36.59,3.32-21.75,10-33.65,30.56-26.58,45.92s30.42,19.73,52.16,9.73c18.67-8.58,30-24.95,28.43-39.14l.19.22-15.42-86.33s12.7-13.36,51.15-16.62,52.78,3.26,52.78,3.26l9.87,77.34,0,0c-10.19-3.15-23.26-2.19-35.81,3.58-21.75,10-33.65,30.56-26.58,45.92s30.42,19.73,52.16,9.73c18.67-8.58,30-24.94,28.43-39.13Z"/></g></g></g></g></svg>