<svg xmlns="http://www.w3.org/2000/svg" xmlns:xlink="http://www.w3.org/1999/xlink" viewBox="0 0 300 300"><defs><style>.cls-1{fill:none;}.cls-2{clip-path:url(#clip-path);}.cls-3{fill:#231f20;}</style><clipPath id="clip-path"><rect class="cls-1" width="300" height="300"/></clipPath></defs><g id="Layer_2" data-name="Layer 2"><g id="Layer_1-2" data-name="Layer 1"><g class="cls-2"><g class="cls-2"><path class="cls-3" d="M25.13,142.57,200,92.75l23.54,82.62-38.46-19.74,7.85,28.46-38.6-20,8,28.73L123.41,172l8.27,29.57L93,181.56l8.07,28.7-38.94-19.6L70.45,219,31.74,199.32,19,153.57a8.94,8.94,0,0,1,6.16-11"/><path class="cls-3" d="M280.25,131.07l-8.54-29.62a28.3,28.3,0,0,0-35-19.32l-26.52,7.65,7.19,25.49,26.67-7.69a1.76,1.76,0,0,1,.49-.07,1.82,1.82,0,0,1,.85.23,1.74,1.74,0,0,1,.85,1l8.54,29.63a1.81,1.81,0,0,1-1.21,2.18l-26.87,7.75,7.19,25.49,27-7.79h0a28.3,28.3,0,0,0,19.32-35"/></g></g></g></g></svg>