<svg xmlns="http://www.w3.org/2000/svg" xmlns:xlink="http://www.w3.org/1999/xlink" viewBox="0 0 300 300"><defs><style>.cls-1{fill:none;}.cls-2{clip-path:url(#clip-path);}</style><clipPath id="clip-path"><rect class="cls-1" width="300" height="300"/></clipPath></defs><g id="Layer_2" data-name="Layer 2"><g id="Layer_1-2" data-name="Layer 1"><g class="cls-2"><g class="cls-2"><path d="M227.21,170.69,278.27,150l-51.06-20.69,33.87-43.44-54.56,7.61,7.61-54.56L170.69,72.79,150,21.73,129.31,72.79,85.87,38.92l7.61,54.56L38.92,85.87l33.87,43.44L21.73,150l51.06,20.69L38.92,214.13l54.56-7.61-7.61,54.56,43.44-33.87L150,278.27l20.69-51.06,43.44,33.87-7.61-54.56,54.56,7.61ZM150,213.41A63.41,63.41,0,1,1,213.41,150,63.41,63.41,0,0,1,150,213.41"/><path d="M189.86,150A39.86,39.86,0,1,1,150,110.14,39.87,39.87,0,0,1,189.86,150"/></g></g></g></g></svg>