<svg xmlns="http://www.w3.org/2000/svg" xmlns:xlink="http://www.w3.org/1999/xlink" viewBox="0 0 300 300"><defs><style>.cls-1{fill:none;}.cls-2{clip-path:url(#clip-path);}.cls-3{fill:#231f20;}</style><clipPath id="clip-path"><rect class="cls-1" width="300" height="300"/></clipPath></defs><g id="Layer_2" data-name="Layer 2"><g id="Layer_1-2" data-name="Layer 1"><g class="cls-2"><g class="cls-2"><path class="cls-3" d="M181,186.35s4.75,43.26,5.75,63.93c6.92,1.33,16.25,4.67,16.92,9.33,5.33,2.08,9.75.93,11.33,0,2.25-15.41-6-54.66,6.67-70.66s44.66-23.34,52.66-42.34c7.43-17.64-1.23-56.26,3.89-72.9a.9.9,0,0,0-1.49-.9c-17.78,17-18.39,49.48-24.4,56.14-9.25,10.25-46.25,17.58-64,37-6,6.61-7.33,20.37-7.33,20.37"/><path class="cls-3" d="M149.12,34.47c-5,31.4-29.13,186.92-24.79,215.81,9.09,1.58,14,16,25.67,16s16.58-14.42,25.67-16C180,221.39,155.85,65.87,150.88,34.47a.89.89,0,0,0-1.76,0"/><path class="cls-3" d="M119,186.35s-4.75,43.26-5.75,63.93c-6.92,1.33-16.25,4.67-16.92,9.33-5.33,2.08-9.75.93-11.33,0C82.75,244.2,91,205,78.33,189s-44.66-23.34-52.66-42.34C18.24,129,26.9,90.35,21.78,73.71a.9.9,0,0,1,1.49-.9c17.78,17,18.39,49.48,24.4,56.14,9.25,10.25,46.25,17.58,64,37,6,6.61,7.33,20.37,7.33,20.37"/></g></g></g></g></svg>