<svg xmlns="http://www.w3.org/2000/svg" xmlns:xlink="http://www.w3.org/1999/xlink" viewBox="0 0 300 300"><defs><style>.cls-1{fill:none;}.cls-2{clip-path:url(#clip-path);}</style><clipPath id="clip-path"><rect class="cls-1" width="300" height="300"/></clipPath></defs><g id="Layer_2" data-name="Layer 2"><g id="Layer_1-2" data-name="Layer 1"><g class="cls-2"><g class="cls-2"><path d="M152,257l56.12-97.2a2.64,2.64,0,0,0-2.29-4H93.63a2.64,2.64,0,0,0-2.29,4L147.46,257a2.64,2.64,0,0,0,4.57,0l56.12-97.2a2.64,2.64,0,0,0-2.29-4H93.63a2.64,2.64,0,0,0-2.29,4L147.46,257a2.64,2.64,0,0,0,4.57,0"/><path d="M148.22,74.23l-37.46,64.88a1.76,1.76,0,0,0,1.52,2.64H187.2a1.76,1.76,0,0,0,1.53-2.64L151.27,74.23a1.76,1.76,0,0,0-3.05,0l-37.46,64.88a1.76,1.76,0,0,0,1.52,2.64H187.2a1.76,1.76,0,0,0,1.53-2.64L151.27,74.23a1.76,1.76,0,0,0-3.05,0"/><path d="M215.21,147.89l56.12-97.2a2.64,2.64,0,0,0-2.28-4H156.81a2.64,2.64,0,0,0-2.29,4l56.12,97.2a2.64,2.64,0,0,0,4.57,0l56.12-97.2a2.64,2.64,0,0,0-2.28-4H156.81a2.64,2.64,0,0,0-2.29,4l56.12,97.2a2.64,2.64,0,0,0,4.57,0"/><path d="M89.36,147.89l56.12-97.2a2.64,2.64,0,0,0-2.29-4H31a2.64,2.64,0,0,0-2.28,4l56.12,97.2a2.64,2.64,0,0,0,4.57,0l56.12-97.2a2.64,2.64,0,0,0-2.29-4H31a2.64,2.64,0,0,0-2.28,4l56.12,97.2a2.64,2.64,0,0,0,4.57,0"/></g></g></g></g></svg>