<svg xmlns="http://www.w3.org/2000/svg" xmlns:xlink="http://www.w3.org/1999/xlink" viewBox="0 0 300 300"><defs><style>.cls-1{fill:none;}.cls-2{clip-path:url(#clip-path);}.cls-3{fill:#231f20;}</style><clipPath id="clip-path"><rect class="cls-1" width="300" height="300"/></clipPath></defs><g id="Layer_2" data-name="Layer 2"><g id="Layer_1-2" data-name="Layer 1"><g class="cls-2"><g class="cls-2"><path class="cls-3" d="M156.33,289.53H143.67v-144a4.33,4.33,0,0,1,4.33-4.34h4a4.33,4.33,0,0,1,4.33,4.34Z"/><path class="cls-3" d="M150.55,90.94l7,45.28a.56.56,0,0,0,.55.48h11.16a.56.56,0,0,0,.55-.65L150.55,10.94a.56.56,0,0,0-1.1,0L130.23,136.05a.56.56,0,0,0,.55.65h11.16a.56.56,0,0,0,.55-.48l7-45.28a.56.56,0,0,1,1.1,0"/><path class="cls-3" d="M105.67,283.53H93V164a4.33,4.33,0,0,1,4.33-4.34h4a4.34,4.34,0,0,1,4.34,4.34Z"/><path class="cls-3" d="M99.88,109.44l7,45.28a.56.56,0,0,0,.55.48h11.16a.55.55,0,0,0,.55-.65L99.88,29.44a.56.56,0,0,0-1.1,0L79.56,154.55a.56.56,0,0,0,.55.65H91.28a.58.58,0,0,0,.55-.48l7-45.28a.56.56,0,0,1,1.1,0"/><path class="cls-3" d="M207,283.53H194.33V164a4.34,4.34,0,0,1,4.34-4.34h4A4.33,4.33,0,0,1,207,164Z"/><path class="cls-3" d="M201.22,109.44l6.95,45.28a.57.57,0,0,0,.55.48h11.17a.56.56,0,0,0,.55-.65L201.22,29.44a.56.56,0,0,0-1.1,0L180.9,154.55a.55.55,0,0,0,.55.65h11.16a.57.57,0,0,0,.55-.48l7-45.28a.56.56,0,0,1,1.1,0"/></g></g></g></g></svg>